<?xml version="1.0" standalone="no"?>
<!DOCTYPE svg PUBLIC "-//W3C//DTD SVG 20010904//EN"
 "http://www.w3.org/TR/2001/REC-SVG-20010904/DTD/svg10.dtd">
<svg version="1.0" xmlns="http://www.w3.org/2000/svg"
 width="512.000000pt" height="512.000000pt" viewBox="0 0 512.000000 512.000000"
 preserveAspectRatio="xMidYMid meet">
<metadata>
Created by potrace 1.14, written by Peter Selinger 2001-2017
</metadata>
<g transform="translate(0.000000,512.000000) scale(0.100000,-0.100000)"
fill="#000000" stroke="none">
<path d="M0 2560 l0 -2560 2560 0 2560 0 0 2560 0 2560 -2560 0 -2560 0 0
-2560z m830 1145 c0 -113 3 -205 8 -205 4 1 81 93 172 205 l165 205 119 0
c115 0 118 -1 105 -19 -8 -11 -85 -106 -172 -210 l-158 -191 168 -247 c92
-136 172 -253 176 -260 6 -10 -16 -13 -111 -13 l-119 0 -128 192 -128 192 -48
-54 -49 -55 0 -137 0 -138 -100 0 -100 0 0 470 0 470 100 0 100 0 0 -205z
m1117 -42 c64 -19 115 -61 142 -116 20 -41 21 -60 21 -310 l0 -267 -90 0 -90
0 0 53 0 52 -26 -33 c-43 -55 -97 -77 -189 -77 -106 0 -163 27 -203 93 -22 38
-27 59 -27 112 0 145 81 199 338 226 97 10 125 65 61 122 -48 43 -171 19 -189
-37 -6 -19 -12 -20 -88 -14 -45 3 -86 9 -91 14 -15 14 24 86 67 125 87 79 222
100 364 57z m676 17 c119 -17 196 -72 226 -159 7 -22 11 -126 11 -293 l0 -259
-92 3 -93 3 -5 45 c-5 42 -6 44 -18 23 -7 -12 -34 -35 -60 -50 -41 -24 -58
-28 -127 -28 -142 0 -220 60 -232 179 -11 107 45 191 150 220 28 9 91 20 140
26 123 15 137 21 137 65 0 54 -36 85 -97 85 -54 0 -112 -29 -120 -60 -5 -18
-12 -19 -87 -13 -44 3 -85 9 -90 13 -14 14 13 76 51 115 43 44 107 75 177 85
28 4 53 8 56 9 3 0 36 -4 73 -9z m904 -22 c50 -23 108 -85 134 -142 30 -69 43
-178 30 -264 -20 -131 -67 -210 -153 -257 -44 -24 -65 -29 -123 -29 -85 -1
-142 25 -180 81 l-25 38 0 -188 0 -187 -100 0 -100 0 0 485 0 485 95 0 95 0 0
-62 0 -63 45 52 c72 82 175 101 282 51z m763 -1 c71 -26 141 -97 171 -174 19
-47 23 -78 23 -163 1 -95 -2 -111 -28 -167 -33 -72 -95 -134 -164 -166 -38
-17 -67 -22 -147 -22 -87 0 -107 3 -156 26 -68 32 -121 85 -157 158 -25 51
-27 66 -27 171 0 103 3 121 26 170 35 76 80 124 144 155 97 48 207 52 315 12z
m-690 -1263 c6 -6 6 -22 -2 -46 l-11 -36 -63 2 c-104 2 -142 -44 -143 -171
l-1 -63 95 0 95 0 0 -45 0 -45 -95 0 -95 0 0 -380 0 -380 -50 0 -50 0 0 380 0
380 -66 0 -65 0 3 43 3 42 63 3 62 3 0 65 c0 100 17 151 65 200 24 24 58 46
81 52 46 13 160 10 174 -4z m270 -54 c55 -55 -9 -143 -85 -114 -26 10 -46 59
-36 88 19 47 85 62 121 26z m410 -160 l0 -100 90 0 90 0 0 -45 0 -45 -90 0
-90 0 0 -285 c0 -304 3 -329 50 -370 17 -15 36 -20 80 -20 l59 0 10 -40 c13
-53 4 -60 -72 -60 -108 0 -190 58 -217 154 -6 20 -10 163 -10 329 l0 292 -60
0 -60 0 0 45 0 45 60 0 60 0 0 93 c0 52 3 97 7 100 3 4 26 7 50 7 l43 0 0
-100z m-412 -527 l2 -423 -50 0 -50 0 0 426 0 425 48 -3 47 -3 3 -422z m-1059
-187 c11 -14 6 -15 -27 -7 -4 1 8 21 12 21 2 0 9 -6 15 -14z m116 4 c3 -6 -1
-7 -9 -4 -18 7 -21 14 -7 14 6 0 13 -4 16 -10z m-30 -10 c8 -13 -5 -13 -25 0
-13 8 -13 10 2 10 9 0 20 -4 23 -10z m-121 -31 c2 -13 5 -28 5 -33 2 -19 16 6
16 27 0 18 5 22 30 19 23 -2 27 -1 15 7 -9 7 -10 11 -3 11 6 0 15 -5 18 -11 4
-6 26 -8 56 -5 l49 5 0 -59 c0 -42 4 -59 13 -56 6 1 9 1 4 -1 -4 -3 -4 -10 -1
-15 4 -7 2 -8 -4 -4 -7 4 -12 2 -12 -3 0 -6 5 -11 10 -11 7 0 6 -5 -2 -13 -6
-8 -22 -11 -35 -9 -13 2 -31 -2 -40 -9 -12 -10 -14 -10 -9 -1 5 9 -3 11 -34 9
-28 -2 -44 1 -47 10 -3 7 -8 11 -12 8 -4 -2 -8 2 -8 10 0 8 4 12 8 9 5 -3 8
11 7 30 -1 34 -21 55 -33 36 -4 -6 -2 -10 3 -10 5 0 9 -8 9 -17 0 -14 -3 -13
-14 4 -8 12 -21 19 -29 16 -11 -4 -11 -7 1 -20 19 -18 19 -30 1 -30 -8 0 -12
6 -8 15 3 9 1 13 -5 9 -6 -4 -10 -1 -9 5 3 24 18 39 32 34 7 -3 16 -1 19 4 3
5 -4 11 -15 15 -11 4 -17 11 -14 17 4 6 10 5 15 -3 6 -10 9 -5 9 15 0 34 7 31
14 -5z m216 -56 c0 -19 -3 -24 -10 -17 -6 6 -8 18 -4 27 9 24 14 21 14 -10z
m-177 -117 c11 1 16 0 13 -3 -3 -4 2 -16 11 -27 13 -15 10 -14 -10 3 -15 14
-27 21 -27 17 0 -5 -6 -3 -13 3 -8 6 -18 7 -22 3 -5 -4 -5 -1 -1 6 5 8 12 10
19 4 7 -5 20 -8 30 -6z m66 -18 c13 -4 13 -5 0 -10 -9 -4 -21 2 -29 15 -11 19
-11 20 1 11 8 -6 21 -13 28 -16z m61 11 c0 -6 -4 -7 -10 -4 -5 3 -10 1 -10 -5
0 -6 -4 -8 -10 -5 -16 10 -11 21 10 22 11 1 20 -3 20 -8z"/>
<path d="M1803 3271 c-97 -20 -133 -46 -133 -97 0 -47 38 -74 104 -74 92 0
146 56 146 150 0 47 3 46 -117 21z"/>
<path d="M2565 3274 c-121 -24 -145 -41 -145 -102 0 -46 36 -72 99 -72 97 0
141 42 141 135 0 38 -4 55 -12 54 -7 -1 -44 -8 -83 -15z"/>
<path d="M3279 3507 c-97 -64 -105 -276 -14 -356 30 -26 44 -31 85 -31 57 0
97 28 126 87 27 57 25 184 -5 241 -40 79 -124 105 -192 59z"/>
<path d="M4106 3530 c-71 -22 -106 -89 -106 -205 0 -128 47 -203 132 -212 52
-6 100 23 132 77 30 51 30 208 0 264 -34 66 -95 95 -158 76z"/>
</g>
</svg>
